<?xml version="1.0" encoding="UTF-8"?>
<svg id="Camada_1" data-name="Camada 1" xmlns="http://www.w3.org/2000/svg" viewBox="0 0 259.9 153.85">
  <path d="M176.54,121.22h-89.51c-4.73,7.62-11.85,11.79-20.09,11.93-8.49.14-16.15-4.33-20.54-11.92l-15.54-.61c-6.08-.24-13.62-.64-18.28-5.26-4.07-4.03-3.53-12.65-1.17-17.34,1.25-2.5,2.39-4.32,2.7-6.81.51-4.13,1.99-7.61,5.5-10.1,2.3-1.63,5.74-3.79,8.62-4.38,9.3-1.91,18.34-3.16,27.67-4.01,6.22-.57,10.81-2.58,15.8-6.16,9.12-6.54,19.21-11.27,29.25-16.42,6.32-3.24,12.61-5.62,19.98-5.61l81.66.09,10.18,4.25c1.67.7,5.49,1.18,5.66,3.2.26,3.09.76,5.02,2.76,6.78l9.9,8.71c4,3.52,5.56,8.2,6.01,13.33l2.5,28.72c.24,2.79-1.27,7.56-3.64,8.64-5.99,2.74-12.12,2.72-18.47,2.63-7.5,12.68-24.27,16.46-35.88,7.03-1.9-1.55-3.24-3.84-5.07-6.69ZM90.18,74.6c4.75-4.89,9.52-9.04,15.21-12.28l7.97-4.53c6.28-3.57,13.31-6.14,20.81-6.15l41-.03,12.28.74c13.3.8,22.06,12.67,20.1,16.88-.53,1.13-2.77,2.39-4.15,2.58l-11.08,1.49.18,3.33-.74.61-.83-3.68-13.44.93-15.51.8-14.02.7.06,31.78,26.19.1c2.49-9.5,10.02-16.11,19.52-17.31,11.01-1.39,20.47,4.53,24.15,15.01l15.59-1.25-1.58-17.85c-4.14-.23-7.36-.92-10.47-3.01-2.29-1.53-4.54-5.77-1.88-7.96,1.97-1.62,5.35-1.63,8.9-2.37-.8-2.02-2.21-3.81-3.78-5.24l-10.57-9.68-1.42-4.77-9.26-3.89c-11.35-1.29-22.17-1.11-33.7-1.34-18.39-.36-36.14-.41-54.44.58-2.5.14-5.24,1.13-7,2.15l9.27.28-15.92,8.11c-6.76,3.44-12.38,7.82-17.96,13.29-4.5,1.55-10.21,1.71-15.19,2.37l-36.21,4.78c-3.25.43-6.04,1.22-8.88,3.71l9.14-.39c6.68-.28,13.19-1.92,20.02.6-3.16,4.12-6.81,8.22-10.64,10.61l-24.71,3.16c-.94,2.1-1.62,4.29-2.09,6.6l17.1.21c1.2,1.45,1.15,5.42-.33,6.05l-15.03.12c-.37,0-1.76.98-1.51,1.09s1.49.96,1.76.97l16.66.46,11.11.63.04-5.56c2.81-12.63,15.19-20.02,27.78-16.96,11.47,2.78,18.1,13.68,16.27,25.24l84.47-.18.06-5.01h-80.33c-.6-2.66-1.01-5.2-1.01-7.73l.04-24.87-12.45-.5,10.44-3.43ZM139.84,72.63l1.57-18.05c-10.33-.29-21.16,1.94-30,8.67,4.81,3.13,6.85,4.4,6.77,10.24l21.66-.86ZM180.83,70.8l-4.33-16.08-28.45-.43-.16,18.23,32.95-1.72ZM195.37,69.4c2.93-.29,5.72-.82,8.3-2.01-3.73-8.56-10.57-11.74-19.85-11.67l4.12,14.4,7.43-.72ZM114.19,73.51c-.32-5.45-4.22-7.55-8.46-6.81-3.35.59-6.54,4.36-9.25,7.19l17.71-.38ZM147.29,107.87l-.21-31.84-54.13,1.92.04,30.01,54.31-.1ZM228.81,81.86l2.59.27-.69-5.86-8.37,1.28c1.08,3.34,3.27,3.98,6.46,4.31ZM35.98,91.64c4.49-.4,8.05-2.06,9.44-6.27l-15.9,1.09-2.73,5.99,9.19-.81ZM82.07,112.27c.3-8.61-6.91-14.83-14.27-15.14-7.65-.33-14.73,4.48-15.9,12.48-1.29,8.79,5.15,16.13,13.56,16.92s16.29-4.91,16.62-14.26ZM212.33,112.36c-.04-7.04-4.38-11.86-9.54-13.94-5.88-2.38-12.16-1.26-16.92,3.48-5.72,5.71-5.14,16.08,1.18,21.24,4.74,3.87,10.76,4.59,16.41,2.16,4.4-1.89,8.89-6.73,8.86-12.94ZM231.04,111.86l-.36-1.54-11.33.12v1.42s11.69,0,11.69,0Z"/>
  <path d="M187.61,83.83l-9.15.23c-.61.02-2.18-1.45-1.88-1.94s1.49-1.83,2.06-1.84l8.66-.16c.45,0,1.58.94,1.92,1.24.44.4-.94,2.45-1.6,2.46Z"/>
  <path d="M141.68,86.59l-8.18.48c-.62.04-1.91-1.32-1.98-1.91s1.3-1.98,1.93-1.97l9.59.1.37,1.8c.1.47-1.21,1.48-1.72,1.51Z"/>
  <path d="M198.74,118.06l-6.01-6c-1.54-1.53-1.15-4.18.18-5.35,1.64-1.43,4.28-1.28,5.66.21l3.89,4.2c1.9,2.05.09,7.1-3.71,6.94Z"/>
  <path d="M65.58,117.72c-1.82,1.74-6.51-2.81-4.9-4.68l6.23-7.21c.82-.95,3.51-.46,4.47.26,1.16.88,2.03,4.16.97,5.17l-6.77,6.45Z"/>
  <rect x="26.5" y="128.74" width="229.82" height="4.18"/>
</svg>