<?xml version="1.0" encoding="UTF-8"?>
<svg id="Camada_1" data-name="Camada 1" xmlns="http://www.w3.org/2000/svg" viewBox="0 0 296.08 153.85">
  <g>
    <path d="M245.43,120.29c-2.8,4.7-6.26,8.17-10.57,9.51-9.06,2.82-18.19-.33-23.5-9.6l-127.03-.06c-4.16,7.67-11.49,11.47-19.52,10.4-6.92-.92-12.9-5.52-15.59-13.17-11,.34-26.02.83-25.9-10.53l.31-28.92c.13-12.33,2.22-24.16,5.75-35.58,1.47-4.76,4.74-8.01,9.36-8l139.97.16c6.73,0,13.09,5.03,18.23,8.89l27.98,21c3.13,2.35,7.66,3.2,11.31,4.49l22.85,8.06c9.17,3.23,14.33,18.08,15.48,29.27.33,3.23-.11,6.75-1.73,9.52-1.23,2.1-4.66,4.24-7.48,4.28l-19.93.29ZM248.73,114.78h5.23s-.05-10.57-.05-10.57l15.79-.02-1.89-9.55-19.53-1.36c-.75-.05-2.02-2.03-2.17-2.89s.99-2.81,1.96-2.75l16.02,1.02c-2.15-8.72-16.6-11.39-25.91-14.06l-16.67-4.79c-6.25-2.88-11.56-8.34-16.94-12.92l-11.43-9.73c-7.23-6.16-14.57-8.51-23.59-8.49l-126.92.31c-2.69,0-5.7,1.11-7.72,2.59-3.31,10.25-4.82,20.82-6.25,31.32l7.78,1.72-.49,14.97c-.14,4.37-3.17,7.19-7.28,6.77l.16,7.03,19.68,1.22c3.89-8.89,11.69-13.34,20.05-12.83,11.99.74,20.48,9.51,20.16,23.94l117.69.02c-.21-9.58,4.16-17.43,11.52-21.34,8.49-4.52,18.62-3.37,25.32,4.46,3.65,4.27,5.28,9.86,5.48,15.93ZM32.19,88.19l.23-9.46c.03-1.05-2.84-2.17-3.71-2l-.71,14.72,2.76-.18c.59-.04,1.41-2.16,1.44-3.08ZM73.03,122.26c3.25-1.87,5.26-5.61,5.47-8.85.23-3.59-1.06-7.21-3.49-9.63-5.22-5.2-14.61-4.57-18.29,2.45-2.04,3.9-1.92,9.65.92,13.17,3.86,4.78,10.1,5.91,15.39,2.87ZM229.86,124.05c6.57-.48,11.3-6.33,10.1-13.46-1.2-7.13-6.93-10.39-12.86-10.19-6.67.22-11.88,6.35-10.41,14.27,1.25,6.72,7.02,9.83,13.16,9.38Z"/>
    <path d="M209.18,74.51l-29.77-1.71c-5.73-.33-11.4-.68-16.89-2.86-3.11-1.24-5.4-5.93-5.43-9.53l-.18-16.99c10.8-.81,20.64-.45,29.81,5.7l23.91,21.88.64,1.79c.18.51-1.48,1.76-2.08,1.72ZM196.94,67.57c-1.69-7.6-6.36-8.78-10.92-8.3-2.53,2.22-2.89,5.56-.74,8.59l11.65-.3Z"/>
    <path d="M167.37,109.95l-73.06.02-2.16-1.79c-.47-.39,1.16-2.07,1.71-2.42l53.62-.04,50.41.28c.52.26,2.2,1.76,1.74,2.16l-2.18,1.91-30.08-.12Z"/>
    <path d="M145.91,72.65c-.01.88-1.82,2.26-2.47,2.38l-103.13-.06-.25-25.79c-.01-1.46,1.71-3.38,3.2-3.38h101.83c2.34,4.62,1.1,9.07,1.02,14.4l-.2,12.46ZM76.58,73.29l6.37.54.35-27.13-39.35-.03c-1.38,0-3.05,2-3.05,3.33v22.96c2.52.64,5.48.47,8.41.46l27.26-.13ZM91.94,73.25l53.24-.02-.12-26.53h-60.44s-.8,5.24-.8,5.24l.12,21.88,8-.57Z"/>
    <path d="M167.18,89.1l-10.32-.2c-1.61-.03-1.58-5.7-.07-5.69l10.1.05c.9,0,2.4,1.94,2.57,2.85s-1.41,3.01-2.27,2.99Z"/>
    <path d="M144.43,85.35c2.69,4.17-13.42,6.21-13.99.72-.09-.84,1.3-2.92,2.07-2.91l9.77.11c.58,0,1.81,1.53,2.16,2.08Z"/>
    <path d="M228.17,116.54c-2.46.23-4.18-2.74-4.23-4.8-.06-2.39,1.39-5.56,3.91-5.57,2.25,0,4.03,2.66,4.1,4.65.08,2.34-.93,5.45-3.78,5.72Z"/>
    <path d="M66.94,116.69c-2.33.24-4.36-2.71-4.54-5-.19-2.44,1.87-5.78,4.5-5.57,2.08.16,3.85,2.82,3.97,4.78.14,2.42-1.42,5.54-3.93,5.8Z"/>
  </g>
  <rect x="25.56" y="128.74" width="229.82" height="4.18"/>
  <path d="M144.43,85.35c2.69,4.17-13.42,6.21-13.99.72-.09-.84,1.3-2.92,2.07-2.91l9.77.11c.58,0,1.81,1.53,2.16,2.08Z"/>
</svg>