<?xml version="1.0" encoding="UTF-8"?>
<svg id="Camada_1" data-name="Camada 1" xmlns="http://www.w3.org/2000/svg" viewBox="0 0 224.38 153.85">
  <path d="M201.55,129.99c.55.02,1.42,1.99,1.05,2.09l-2.93.84-181.49-.07c-.83-.07-2.23-.06-2.35-.44l-.78-2.33,16.11-1.17-4.57-3.8c-7.55-6.28-13.44-2.96-15.85-6.8-.9-1.43-.71-5.7-.75-7.59-5.34-10.59-4.13-24.47,6.4-31.47l18.82-7.23,27.61-14.21c8.45-4.35,18.58-5.53,28.18-5.63l35.91-.34c11.52-.11,22.72,1.84,33,6.96l29.3,17.67,9.89,6.13c1.66,1.03,3.13,5.63,3.4,7.92l2.52,21.33c.46,3.86-1.86,6.77-5.27,7.84l-9.85,3.09-5.94,6.71,17.58.49ZM20.75,98.7l-8.61,1.61c-.24.13-.17,3.15.69,3.2l3.22.17c3.21.16,7.7.62,10.12,1.36-.18,8.28-11.6,2.37-12.72,6.62-.3,1.13.33,3.43,1.23,4.14l50.04.15c9.33,1.64,18.75.79,28.71-.3-2-9.53,4.51-22.41,14.68-23.69s17.44,11.27,16.25,22.92l38.45-.02c.45-6.81,1.94-13.41,7.71-17.58,2.72-1.96,9.34-2.22,12.17-.47,6.23,3.84,8.51,9.72,8.63,17.36l7.82-1.14-1.82-17.53c-.1-.93-.25-3.51-1.11-3.53l-3.62-.08c-1.03-.02-3.18-.76-3.75-1.63s-.02-3.6,1.01-3.78l4.84-.84c-17.82-8-37.07-28.39-59.79-28.46l-43.03-.14-19.23,2.63c-8.87,2.6-16.35,7.09-24.94,11.6,4.1,1.3,7.52.23,11.49-1.15,9.14-3.16,18.65-4.65,28.28-5.74l20.6-2.33c4.53-.51,8.58-3.88,13.88-1.13l-20.88,15.19c-3.41,2.48-9.01,1.42-12.99,1.34l-34.15-.68c-12.74-.25-25.75,1.59-36.45,8.45l13.1,2.87c16.99,2.41,34.02.61,51.32-.08,4.93-.2,9.68-1.42,13.9-2.82l-3.86,10.84c-1.01,2.85-3.69,4.96-6.86,4.92l-17.41-.23c.42-1.63,2.7-4.57,4.31-4.61l14.54-.32.63-2.44c.12-.47-1.61-.63-2.18-.58l-22.06,1.66-37.96.6c-4.28.07-7.09-1.33-9.71-5.13-1.03,1.24-2.47,4.97-2.37,6.38,3.52.79,4.58.89,7.87,2.41ZM114.69,121.47c5.23-7.05,3.16-19.86-5.7-22.58-5.06-.32-7.95,6.44-8.76,9.96-1.04,4.52-.05,10.57,4,13.63,1.5,1.13,4.43,2.38,5.92,2.23,1.3-.14,3.48-1.8,4.54-3.24ZM181.61,104.18c-.96-1.16-4.67-2-5.99-1.48s-3.03,2.15-4.08,3.7c-3.67,5.39-3.49,11.98,1.68,16.29,1.43,1.19,5.6,1.62,7.34.72,6.11-3.18,6.51-12.61,1.05-19.23ZM98.24,127.42l-4.49-5.59-39.52.06-5.59,5.3,49.6.23ZM167.29,127.38l-5.26-6.02-37.83.29-5.25,5.89,48.34-.17Z"/>
  <path d="M139.8,81.73l-28.95.12c-1.15,0-4.21-1.37-3.92-2.44s1.82-2.58,2.99-3.55c10.65-8.84,14.41-17.88,29.86-14.64l.02,20.52ZM132.18,78.39c1.22.06,1.81-4.36.69-4.39l-11.26-.28c-1.47-.04-4.05,2.4-4.7,3.98l15.26.69Z"/>
  <path d="M178.5,80.3l-35.47,1.37-.03-18.82c8.31,0,15.54,2.07,21.94,7l13.57,10.46Z"/>
  <path d="M86.42,110.34c.95.07.58,3.13-.33,3.53H27.28c-.73-1.15,1.68-4.09,3.58-4.07l26.09.24c1.31.01,4.69.92,5.4-.13l3.47-5.14,20.77-.23c.57,0,1.84,2.4,1.38,2.7s-1.86,1.24-2.48,1.28l-11.5.85,12.43.98Z"/>
  <path d="M50.34,102.39l-16.26-.24c-4.12-.06-7.25-.41-9.18-5.2l33.99-.25,6.15-.48-1.15,4.15c-.33,1.18-3.49,1.91-4.72,1.92l-8.82.1Z"/>
  <path d="M57.18,108.51l-25.03-.47c-.91-.02-3.24-.15-3.13-.76l.65-3.49,31.38.13c.1,1.45-2.22,4.61-3.87,4.58Z"/>
  <path d="M161.97,88.09c-10.44,2.16-21.16,3.02-32.21.03l32.21-.03Z"/>
  <path d="M111.36,115.82c-1.26,1.61-4.37,2.43-5.53,1.67s-2.34-4.03-1.81-5.3c.79-1.89,2.38-3.92,3.65-4.35s4.11,1.02,4.71,2.21.25,4.12-1.03,5.76Z"/>
  <path d="M179.13,108.94c1.63.06,2.88,3,.68,8.23-.48,1.14-3.72,2.19-4.74,1.41-2.25-1.72-1.73-7.11.72-8.76.69-.46,2.55-.91,3.33-.88Z"/>
</svg>