<?xml version="1.0" encoding="UTF-8"?>
<svg id="Camada_1" data-name="Camada 1" xmlns="http://www.w3.org/2000/svg" viewBox="0 0 323.01 153.85">
  <defs>
    <style>
      .cls-1 {
        stroke: #1d1d1b;
        stroke-miterlimit: 10;
      }
    </style>
  </defs>
  <path d="M232.71,131.92l-202.62-.1c-.28-1.27,1.57-2.94,2.9-2.94l32.27-.12-8.23-7.88-21.1-.76c-7.92-.29-13.64-6.3-14.1-14.3l1.4-18.55c.78-10.36,7.43-18.1,18.07-19.37l31.07-3.72c5.92-.71,12.92-.23,18.44-2.44,15.14-6.07,31.69-21.02,48.48-24.35l16.6-1.2,49.81-.15c2.24,0,7.63,1.49,8.22,3.59,2.58,9.12,2.82,17.18,3.39,26.65l82.48.52c4.47.03,8,1.75,8.45,6.76l2.45,27.39c.28,3.16,1.74,7.12.13,10.19-1.19,2.27-4.91,5.05-8.31,5.42l-28.74,3.16c-2.93,3.52-5.76,6.2-10.03,9.12l38.94.12,2.21,1.56c.62.44-1.6,1.93-2.42,2.28l-69.73-.87ZM41.69,102.64c.88.14,2.68,2.19,2.99,3.02s-1.04,3.12-1.94,3.08l-13.52-.57c.65,1.86,3.34,4.82,5.43,5l20.99,1.86c-2.03-8.28.04-15.85,4.87-22.1,4.57-5.9,12.39-8.9,20.45-8.43,15.57.91,26.87,15.07,23.01,30.34h108.08s-.18-30.01-.18-30.01c-.08-13.37-.59-25.89-2.91-39.06-.35-2-3.05-3.95-5.12-3.94l-60.04.21c-4.89.02-11.13,2.98-15.23,5.36l-30.42,17.67c-4.77,2.77-10.36,3.8-15.8,4.19-14.66,1.04-28.37,2.4-42.91,5.15-2.1.4-5.34,2.92-6.76,4.3l24.68.26c1.01.01,2.01,2.73,1.31,3.02l-2.6,1.07c-6.5,2.68-4.8,9.22-12.32,9.59l-14.21.7c-1.05,1.24-1.6,4.41-1.71,7.06l13.86,2.22ZM295.76,102.08l8.33-.39-.49-7.84c-1.62.08-5.5-.25-6.63-1.38-2.47-2.46-5.2-12.99-2.31-15.38,2.29-1.89,8.86.6,7.63-1.61l-1.28-2.32-82.76-.33.76,42.1,8.34-.44c-3.18-15.22,6.95-28.72,21.24-29.85,10.16-.8,19.06,2.72,24.04,11.46,2.82,4.94,3.85,10.3,4.57,16.07l17.44-1.78,1.12-8.3ZM44.41,87.6l1.58-3.77-10.32-.05c-2.05-.01-4.42,1.75-5.02,4.03l13.76-.21ZM94.89,116.24c4.74-8.77-.17-19.11-8.12-22.81-8.18-3.81-18.37-.74-22.48,7.81-1.73,3.61-1.97,9.16-.67,12.94,2.26,6.6,8.98,10.14,14.9,10.68,6.44.59,12.96-2.3,16.37-8.62ZM267.91,112.41c1.41-8.1-2.5-15.52-8.46-18.71-6.61-3.55-14.53-2.19-19.68,2.71s-6.57,12.64-3.71,19.37,10.18,9.81,17.13,9.02c6.25-.71,13.38-4.67,14.72-12.39ZM235.55,127.31l-5.26-5.43-128.98-.05-5.55,5.33,139.79.15Z"/>
  <path d="M108.78,71.85c-.5,0-3.09-1.17-2.77-1.54l1.56-1.84,24.59-16.37c3.87-2.86,8.7-5.26,13.63-5.24l24.07.08-.07,25.62-61.01-.7ZM164.01,66.77l-.17-13.98-23.39.17-18.27,13.65,41.82.16Z"/>
  <path d="M203.53,62.16c-.18,5.24-4.86,9.58-9.66,9.61l-20.63.13.58-24.99,25.18-.08c1.74,0,4.94,3.12,4.88,4.82l-.35,10.51Z"/>
  <path d="M201.85,107.18l-85.95.09c-1.17,0-3.42-1.25-4.07-2.06s.55-3.67,1.59-4.35l87.35-.04c2.92,0,4.17.28,4.86,2.93.34,1.33-1.55,3.42-3.78,3.42Z"/>
  <path d="M86.88,107.59c-4.94,8.86-13.05,9.68-13.95,6.44-.32-1.16.62-3.56,1.51-4.4l6.5-6.16c.83-.78,2.97-1.33,4.04-1,1.29.4,2.59,3.89,1.9,5.12Z"/>
  <path d="M247.84,116.01c-1.53.74-4.85-3.56-3.73-4.75l7.45-7.92c.85-.9,3.38-1.63,4.53-1.26,1.34.42,2.38,4.23,1.56,5.6-2.1,3.56-5,6.01-9.81,8.33Z"/>
  <line class="cls-1" x1="169.86" y1="66.36" x2="169.86" y2="105.24"/>
  <path d="M163.71,85.35c2.69,4.17-13.42,6.21-13.99.72-.09-.84,1.3-2.92,2.07-2.91l9.77.11c.58,0,1.81,1.53,2.16,2.08Z"/>
</svg>