<?xml version="1.0" encoding="UTF-8"?>
<svg id="Camada_1" data-name="Camada 1" xmlns="http://www.w3.org/2000/svg" viewBox="0 0 256.36 153.85">
  <g>
    <path d="M174.97,118.31h-78.6c-4.16,7.59-10.4,11.76-17.64,11.9s-14.18-4.32-18.04-11.89l-13.65-.61c-5.34-.24-11.96-.64-16.05-5.24-3.58-4.02-3.1-12.61-1.03-17.29,1.1-2.49,2.1-4.3,2.37-6.79.45-4.12,1.75-7.59,4.83-10.07,2.02-1.62,5.04-3.78,7.57-4.37,8.17-1.9,16.1-3.15,24.3-4,5.46-.57,9.49-2.57,13.87-6.15,8.01-6.52,16.87-11.24,25.68-16.37,5.55-3.23,11.07-5.6,17.54-5.6l71.7.09,8.94,4.23c1.46.69,4.82,1.18,4.97,3.19.23,3.09.67,5.01,2.43,6.76l8.69,8.69c3.51,3.51,4.88,8.18,5.28,13.29l2.19,28.64c.21,2.78-1.11,7.54-3.19,8.62-5.26,2.73-10.64,2.71-16.22,2.62-6.59,12.64-21.31,16.41-31.5,7.01-1.67-1.54-2.85-3.83-4.45-6.68ZM99.13,71.82c4.17-4.87,8.36-9.02,13.35-12.24l7-4.52c5.51-3.56,11.69-6.13,18.27-6.13l36-.03,10.79.74c11.68.8,19.37,12.64,17.65,16.83-.46,1.13-2.43,2.38-3.64,2.57l-9.73,1.49.16,3.32-.65.61-.73-3.67-11.8.93-13.62.79-12.31.7.05,31.69,22.99.1c2.19-9.47,8.8-16.07,17.14-17.26,9.67-1.38,17.97,4.52,21.21,14.97l13.69-1.25-1.39-17.8c-3.63-.23-6.46-.92-9.19-3-2.01-1.53-3.99-5.76-1.65-7.94,1.73-1.61,4.7-1.62,7.81-2.36-.7-2.02-1.94-3.79-3.32-5.23l-9.29-9.65-1.25-4.75-8.13-3.88c-9.97-1.29-19.47-1.11-29.59-1.34-16.15-.36-31.74-.41-47.8.58-2.2.14-4.6,1.13-6.15,2.14l8.14.28-13.98,8.08c-5.94,3.43-10.87,7.8-15.77,13.25-3.95,1.55-8.97,1.71-13.34,2.36l-31.8,4.77c-2.85.43-5.3,1.22-7.79,3.7l8.02-.39c5.87-.28,11.58-1.91,17.58.6-2.78,4.11-5.98,8.2-9.34,10.58l-21.7,3.15c-.83,2.1-1.42,4.28-1.84,6.58l15.02.21c1.06,1.44,1.01,5.4-.29,6.03l-13.2.12c-.33,0-1.54.97-1.33,1.09s1.31.96,1.55.97l14.63.45,9.76.63.04-5.54c2.47-12.6,13.34-19.96,24.4-16.91,10.07,2.78,15.9,13.64,14.29,25.17l74.17-.18.06-5h-70.54c-.53-2.65-.89-5.19-.88-7.71l.03-24.8-10.93-.5,9.17-3.42ZM142.74,69.86l1.38-18c-9.07-.29-18.58,1.94-26.35,8.65,4.22,3.12,6.01,4.38,5.95,10.21l19.02-.86ZM178.73,68.03l-3.81-16.03-24.98-.43-.14,18.18,28.93-1.72ZM191.49,66.64c2.57-.28,5.02-.82,7.29-2-3.28-8.53-9.28-11.71-17.43-11.63l3.62,14.36,6.52-.72ZM120.22,70.73c-.28-5.43-3.7-7.53-7.43-6.79-2.94.58-5.74,4.35-8.12,7.17l15.55-.38ZM149.28,105l-.19-31.75-47.53,1.92.03,29.93,47.69-.1ZM220.86,79.06l2.27.27-.6-5.84-7.35,1.27c.95,3.33,2.87,3.96,5.68,4.3ZM51.54,88.81c3.94-.4,7.07-2.06,8.29-6.26l-13.96,1.09-2.4,5.98,8.07-.81ZM92.01,109.38c.26-8.59-6.07-14.79-12.53-15.1s-12.93,4.47-13.96,12.44c-1.13,8.76,4.52,16.09,11.91,16.88,7.04.75,14.31-4.89,14.59-14.22ZM206.39,109.48c-.03-7.02-3.84-11.82-8.37-13.9-5.17-2.37-10.68-1.25-14.85,3.47-5.03,5.69-4.52,16.03,1.04,21.18,4.16,3.86,9.45,4.58,14.41,2.16,3.86-1.89,7.81-6.71,7.78-12.91ZM222.82,108.98l-.32-1.53-9.95.12v1.42s10.27,0,10.27,0Z"/>
    <path d="M184.68,81.02l-8.03.23c-.54.02-1.91-1.45-1.65-1.93s1.31-1.83,1.81-1.84l7.6-.16c.39,0,1.39.94,1.68,1.23.39.4-.83,2.44-1.41,2.46Z"/>
    <path d="M144.35,83.77l-7.19.47c-.55.04-1.68-1.32-1.74-1.91s1.14-1.97,1.7-1.97l8.42.1.32,1.8c.08.47-1.06,1.47-1.51,1.5Z"/>
    <path d="M194.46,115.16l-5.28-5.98c-1.35-1.53-1.01-4.17.16-5.33,1.44-1.42,3.76-1.28,4.97.21l3.42,4.19c1.67,2.05.08,7.08-3.26,6.92Z"/>
    <path d="M77.53,114.82c-1.6,1.73-5.72-2.81-4.3-4.67l5.47-7.19c.72-.95,3.08-.46,3.92.26,1.02.87,1.78,4.15.85,5.16l-5.94,6.44Z"/>
  </g>
  <rect x="18.75" y="128.74" width="229.82" height="4.18"/>
</svg>