<?xml version="1.0" encoding="UTF-8"?>
<svg id="Camada_1" data-name="Camada 1" xmlns="http://www.w3.org/2000/svg" viewBox="0 0 271.04 153.85">
  <defs>
    <style>
      .cls-1 {
        stroke: #1d1d1b;
        stroke-miterlimit: 10;
      }
    </style>
  </defs>
  <path d="M33.68,75.33c3.01-1.21,9.27-.75,13.2-.02-.77,4.75-6.86,3.86-12.45,9.86-1.72,1.85-4.79,3.57-7.26,3.49l-14.82-.48c-.55,2.94-.66,7.03-.15,10.42l15.48,1.47c1.11.11,2.55,2.44,2.73,3.41s-1.01,3.42-2,3.34l-14.5-1.2c1.48,5.71,6.55,6.45,11.55,6.82l17.96,1.32c-3.1-14.37,6.99-28.18,21.6-29.25,8.63-.63,16.53,1.69,21.97,7.95,5.04,5.8,7.29,14.14,5.21,22.4l95.4-.05c-2.76-13.97,6.08-27.52,19.29-29.96,8.41-1.55,16.59.33,22.17,5.44,6.08,5.57,8.63,12.73,7.99,21.71l7.12-1.72c-.02-2.93.09-6.59,1.54-7.55,2.75-1.81,5.92-1.78,9.97-1.75l-2.62-23.06-10.23-4.9c-1.8-.86-2.68-6.02-2.61-8.03.11-3.14,3.71-4.62,6.85-4.31-6.39-6.79-12.27-13.76-15.19-22.68l-38.92-1.31,5.27,19.52,27.76-3.39c1-.12,4.06.56,4.12,1.51.07,1.15-1.23,2.77-2.63,4.32l-41.16,4.61-11.26.72-23.02.97c-22.34.94-44.19,1.74-66.49-.12,2.36-4.59,6.32-5.28,8.44-8.06l17.47-22.89c2.03-2.65,8.53-3.75,12.05-3.76l48.58-.05,45.14.37,15.68.77c5.84.29,7.74,14.94,19.93,25.52,5.13,4.45,6.63,8.38,7.1,15.15l2.17,30.96c.43,6.11-2.43,12.17-9.05,13.28l-17.72,2.99-10.28,9.64h29.92s1.99,1.7,1.99,1.7c.56.47-1.57,1.9-2.3,2.23l-49.02-.7-187.11-.23-.72-2.74,35.35-.53-8.97-8.49c-16.87-.78-34.59,2.29-38.2-14.19-1.97-8.99-.53-17.93,1.07-26.95,2.76-15.6,14.59-17.47,29.88-19.25,4.21-.49,7.3-1.92,10.61-4.53,9-7.1,17.45-15.9,28.1-20.65,8.82-3.94,18.89-1.28,29-2.02l-6,8.91c-5.12,7.61-10.28,14.57-17.49,20.76-2.12,1.82-7.9,1.8-10.93,1.74-14.48-.32-28,.42-42.06,2.96-5.78,1.05-10.86,4.19-14.51,8.67l11.19.77-7.22,7.14,6.89.93,9.17-8.99ZM144.71,59.82l-.02-24.01-22.37.28c-3.6.05-7.05,2.12-8.78,5.04l-13.87,18.74,45.05-.05ZM191.1,56.78l-4.89-19.98-35.85-1,.34,23.24,17.15-.57,23.25-1.69ZM77.55,58.18c6.44-6.34,11.1-12.32,15.91-19.15-10.16-2.06-18.48,1.23-25.6,7.48l-12.87,11.3,22.55.37ZM82.19,117.6c5.03-7.63,2.68-16.69-2.95-21.51-6.17-5.27-15.01-5.84-21.03-1.59-6.61,4.66-9.36,12.88-6.11,20.72,2.34,5.64,8.59,8.68,14.12,9.11s12.46-1.39,15.98-6.73ZM227.62,116.01c3.92-8.02.34-16.65-5.97-21.2s-15.45-3.91-21.24,1.8-7.4,14.31-2.39,21.33c3.54,4.96,9.39,7.36,15.37,6.77,5.05-.5,11.47-3.05,14.23-8.69ZM196.2,127.15l-4.78-5.26-102.9-.05-5.22,5.39,112.9-.08Z"/>
  <path d="M203.66,24.19c-3.97,2.33-6.69,2.3-11.1,2.14-34.18-1.25-67.86-1.81-102.12-1.14-1.87.04-5.68.43-5.91-1.05-.44-2.9,3.21-4.45,5.74-4.45l83.77.24,25.95.83,3.68,3.43Z"/>
  <path d="M178.03,107.57l-77.19-.03c-1.21-1.2-2.36-2.43-2.9-3.23s2.16-2.48,3.22-2.71l79,.11,1.06,3.43c.23.74-2.3,2.43-3.19,2.43Z"/>
  <path d="M147.27,74.41c2.18,2.34-12.54,6.08-16.97,1.56-.55-.56,0-3.56.78-3.57l13.23-.15c.73,0,2.47,1.62,2.97,2.16Z"/>
  <path d="M200.9,76.06l-13.86-.27c-.26-2.45.83-4.95,1.92-4.93l10.53.22c.61.01,2.27,1.02,2.79,1.36.69.44-.6,3.64-1.39,3.63Z"/>
  <path d="M218.34,103.22c3.02,5.96-6.46,12.89-10.28,12.43-1.29-.15-3.72-3.58-2.77-4.53l8.92-8.98c.7-.71,3.68.19,4.13,1.08Z"/>
  <path d="M75,107.52c-2.29,4.4-8.36,8.62-11.07,8.26-1.29-.17-3.36-2.31-3.89-3.87l9.38-9.56c.78-.79,3.78-.46,4.45.29.81.89,1.68,3.81,1.12,4.88Z"/>
  <line class="cls-1" x1="150.35" y1="66.36" x2="150.35" y2="105.24"/>
  <line class="cls-1" x1="93.46" y1="66.36" x2="93.46" y2="105.24"/>
</svg>