<?xml version="1.0" encoding="UTF-8"?>
<svg id="Camada_1" data-name="Camada 1" xmlns="http://www.w3.org/2000/svg" viewBox="0 0 310.22 153.85">
  <defs>
    <style>
      .cls-1 {
        stroke: #1d1d1b;
        stroke-miterlimit: 10;
      }
    </style>
  </defs>
  <path d="M283.66,132.72l-55.32-.62-196.41-.3c-.32-1.79,2.03-2.82,3.69-2.83l27.22-.23-7.6-7.67-22.17-1.7c-3.54-.27-8.97-3.1-10.3-6.57-3.57-9.29-3.72-20.34.53-29.3,9.74-20.53,63.53-15.34,77.85-22.08,20.06-9.43,31.51-22.02,57.99-23.2,46.9-2.08,56.83,1.41,96.47,22.5,4.58,2.44,9.57,3.58,14.79,3.99l15.13,1.19c2.22.18,5.48,3.63,5.93,6.01,2.23,11.8,3.56,22.99,3.26,34.95-.14,5.42-4.98,9.64-9.96,10.3l-20.72,2.75-7.86,8.93,29.53-.02.89,2.39c.21.56-2.28,1.52-2.93,1.51ZM87.32,86.11c11.79,4.39,17.91,16.55,14.44,28.76h9.23c35.64-.02,71.27-.03,106.91-.05-.16-1.42-1.9-17.67,9.01-25.78,2.71-2.01,5.92-3.44,9.52-4.12,8.58-1.62,17.25.26,22.99,6.25,5.33,5.55,7.96,12.92,7.25,21.81l15.61-2.21c4.22-.6,6.94-4.77,6.32-8.9l-2.6-17.12h-7.49c-1.16.01-3.2-2.32-3.4-3.49-.2-1.16,1.5-3.84,2.75-3.97l7.04-.72c.88-.7-1.33-5.19-3.19-5.19l-53.29.14-113.82-.59c-1.64,0-4.79-1.73-3.99-2.66,2.79-3.27,6.99-3.72,10.97-3.65l52.84.96,1.03-20.76-20.92.27c-9.86.13-19.26,4.25-27.63,9.05l-17.82,10.23c-6.79,3.9-13.3,5.13-21.12,5.98l-31.39,3.39c-8.8.95-17.11,3.64-24.55,7.36,3.46,1.24,5.16,1.91,6.42,2.92-5.12,1.62-6.25,1.51-9.55,3.65l13.27.14c1.37-2.35,2.77-4.48,4.29-4.94,1.54-.46,4.92.2,6.19.96-.37,5.39-4.77,9.16-9.98,9.2l-15.71.12-.37,7.52,11.4.74c1.18.08,3.8,1.13,4.43,2.03.62.91.7,3.17.42,4.78l-15.34-.36c.6,1.37,2.6,4.2,4.02,4.38l21.69,2.85c-1.75-8.82.61-17.92,7.32-24.34,7.15-6.85,17.71-8.03,26.81-4.64ZM249.73,64.64c-22.09-11.38-40.14-22.28-65.78-19.56l-.25,20.35,66.03-.79ZM91.41,118.27c4.01-5.18,4.12-11.41,1.63-17.05-1.96-4.44-6.54-8.41-12.5-9.24-6.74-.94-13.31,1.6-16.74,6.66-3.62,5.33-4.84,12.42-1.19,18.28,2.91,4.67,8.76,7.54,13.61,7.85,5.48.35,11.56-1.82,15.18-6.49ZM246.48,124.38c7.99-1.72,12.55-7.8,12.24-15.56-.33-8.29-5.55-15.26-13.03-16.74-8.06-1.6-15.72,2.13-19.17,9.75-2.79,6.15-1.98,12.99,1.98,17.59,4.34,5.04,11.02,6.45,17.97,4.96ZM225.65,127.21l-5.29-5.34h-121.33s-5.69,5.29-5.69,5.29l132.31.05Z"/>
  <path d="M170.98,80.66c2.18,2.34-12.54,6.08-16.97,1.56-.55-.56,0-3.56.78-3.57l13.23-.15c.73,0,2.47,1.62,2.97,2.16Z"/>
  <path d="M206.32,106.87h-93.53c-1.37-.46-3.45-1.6-3.46-2.59-.01-1.18,1.91-2.66,3.68-3.42h95.53s1.03,3.4,1.03,3.4c.29.95-1.99,2.12-3.25,2.6Z"/>
  <path d="M84.87,106.9c-2.26,5.41-9.34,10.37-12.96,8.22-.84-.5-1.67-3.35-.96-4.09l7.3-7.61c.99-1.03,3.49-1.76,4.68-1.45s2.44,3.76,1.94,4.93Z"/>
  <path d="M238.86,115.67c-1.35.55-4.04-1.6-4.16-2.71s.62-3.4,1.51-4.24l6.66-6.29c.84-.79,3.94-.85,4.75-.17,3.07,2.57.05,9.8-8.76,13.4Z"/>
  <line class="cls-1" x1="106.09" y1="72.24" x2="106.09" y2="112.34"/>
  <line class="cls-1" x1="176.68" y1="73.46" x2="176.68" y2="112.34"/>
</svg>